<svg xmlns="http://www.w3.org/2000/svg" width="695.069" height="598" viewBox="0 0 695.069 598"><defs><style>.a,.b{fill:#c1d3a9;}.a{opacity:0.5;}.c{fill:#9ab76c;}</style></defs><g transform="translate(-467.931 -120)"><path class="a" d="M625.153,0H940a20,20,0,0,1,20,20V578a20,20,0,0,1-20,20H275.681c-11.046,0,103.056-70.569,135.656-174.016s26.425-140.615,63.531-242.632S614.107,0,625.153,0Z" transform="translate(193 120)"/><path class="b" d="M625.153,0H940a20,20,0,0,1,20,20V578a20,20,0,0,1-20,20H275.681c-11.046,0,103.056-70.569,135.656-174.016s26.425-140.615,63.531-242.632S614.107,0,625.153,0Z" transform="translate(203 120)"/><path class="c" d="M13.388,412.915c-.176-.6-.337-1.211-.46-1.83a15.8,15.8,0,0,1-.259-1.888c0-.322-.02-.646,0-.974a4.505,4.505,0,0,1,.2-.987l.2-.493a6.068,6.068,0,0,1,.975-1.178,2.451,2.451,0,0,1,.972-.539,1.853,1.853,0,0,1,1.181.044,2.765,2.765,0,0,1,.949.592,4.675,4.675,0,0,1,.677.789,8.969,8.969,0,0,1,.95,1.744,11.632,11.632,0,0,1,.617,1.864l.009.037a.562.562,0,0,1-1.092.269l-.162-.641a3.042,3.042,0,0,1-.072-.674,2.355,2.355,0,0,1,.06-.7,2.28,2.28,0,0,1,.241-.7,2.915,2.915,0,0,1,.45-.62,2.7,2.7,0,0,1,.651-.42,2.054,2.054,0,0,1,.741-.188,2.436,2.436,0,0,1,.752.041,3.526,3.526,0,0,1,.693.252,3.575,3.575,0,0,1,.585.423,3.3,3.3,0,0,1,.462.53,5.056,5.056,0,0,1,.341.593l.226.629c.049.212.078.426.116.638a8.1,8.1,0,0,1,.058,1.264.514.514,0,1,1-1.027.057v-.04a8.982,8.982,0,0,1,.07-1.53,4.244,4.244,0,0,1,.151-.756,5.48,5.48,0,0,1,.237-.736,6.722,6.722,0,0,1,.336-.7,5.051,5.051,0,0,1,.448-.648,3.356,3.356,0,0,1,.57-.557,2.356,2.356,0,0,1,.7-.414,2.7,2.7,0,0,1,.8-.2,2.121,2.121,0,0,1,.814.154,1.921,1.921,0,0,1,.681.423,2.737,2.737,0,0,1,.507.582,4.265,4.265,0,0,1,.355.661,3.909,3.909,0,0,1,.242.7,8.262,8.262,0,0,1,.256,1.429,10.218,10.218,0,0,0-.458-1.357,3.651,3.651,0,0,0-.306-.632,3.939,3.939,0,0,0-.393-.565c-.167-.148-.289-.355-.491-.446a1.414,1.414,0,0,0-.567-.267,1.919,1.919,0,0,0-.6-.064,2.037,2.037,0,0,0-.575.193,1.693,1.693,0,0,0-.508.355,2.649,2.649,0,0,0-.423.478,4.292,4.292,0,0,0-.331.562,5.839,5.839,0,0,0-.239.614,4.3,4.3,0,0,0-.157.646,3.575,3.575,0,0,0-.084.663,9.092,9.092,0,0,0-.01,1.344l-1.028.017a7.323,7.323,0,0,0-.088-1.058l-.109-.5-.184-.462a4,4,0,0,0-.243-.413,2.269,2.269,0,0,0-.3-.343,2.72,2.72,0,0,0-.359-.255,2.9,2.9,0,0,0-.4-.141,1.357,1.357,0,0,0-.4-.013.9.9,0,0,0-.379.1c-.133.029-.207.15-.326.206-.065.115-.184.186-.229.319a1.2,1.2,0,0,0-.138.4,1.3,1.3,0,0,0-.042.449,1.938,1.938,0,0,0,.047.48l.115.493-1.084.306a10.812,10.812,0,0,0-1.31-3.287,3.694,3.694,0,0,0-.516-.655,1.907,1.907,0,0,0-.6-.443.957.957,0,0,0-.651-.073,1.675,1.675,0,0,0-.674.317,3.467,3.467,0,0,0-.617.6c-.084.1-.242.271-.266.324l-.176.371a3.754,3.754,0,0,0-.231.83c-.05.293-.07.6-.106.9a15.7,15.7,0,0,0,.038,1.853C13.249,411.668,13.307,412.292,13.388,412.915Z" transform="translate(654.339 210.793)"/><path class="c" d="M30.783,265.22c-.062-.517-.186-1.025-.252-1.544s-.136-1.041-.165-1.568a7.976,7.976,0,0,1,.048-1.61,3.948,3.948,0,0,1,.222-.816,2.288,2.288,0,0,1,.512-.763l-.021.017.472-.414a5.25,5.25,0,0,1,.566-.322,4.311,4.311,0,0,1,.651-.165,3.2,3.2,0,0,1,.67.033,2.783,2.783,0,0,1,.628.186,3.007,3.007,0,0,1,.565.289,5.261,5.261,0,0,1,.963.756A10.21,10.21,0,0,1,37.1,261.16a10.673,10.673,0,0,1,1.035,2.129l-1.071.331a7.743,7.743,0,0,1-.259-1.7,7.164,7.164,0,0,1,.1-1.717,3.334,3.334,0,0,1,.813-1.7,2.013,2.013,0,0,1,.9-.559,1.715,1.715,0,0,1,.509-.1,1.494,1.494,0,0,1,.322-.01l.2.028a1.85,1.85,0,0,1,.531.165,2.426,2.426,0,0,1,.459.3,3.437,3.437,0,0,1,.617.727,7.3,7.3,0,0,1,.7,1.564,28.359,28.359,0,0,1,.751,3.112l-.872.122a5.623,5.623,0,0,1,.212-1.233,5.238,5.238,0,0,1,.2-.579,4.15,4.15,0,0,1,.252-.552,6.054,6.054,0,0,1,.645-1.022,4.593,4.593,0,0,1,.388-.463,3.521,3.521,0,0,1,.445-.417,2.817,2.817,0,0,1,1.1-.586,1.664,1.664,0,0,1,.655-.038,1.26,1.26,0,0,1,.572.327,1.353,1.353,0,0,1,.35.51,1.89,1.89,0,0,1,.184.563,6.261,6.261,0,0,1,.12,1.152,6.062,6.062,0,0,0-.286-1.1,1.893,1.893,0,0,0-.229-.5,1.077,1.077,0,0,0-.336-.392c-.116-.134-.291-.137-.431-.193a1.286,1.286,0,0,0-.474.09,2.389,2.389,0,0,0-.848.591,5.161,5.161,0,0,0-.362.4,4.629,4.629,0,0,0-.317.438,5.249,5.249,0,0,0-.513.956,3.387,3.387,0,0,0-.191.5,4.148,4.148,0,0,0-.142.516,4.757,4.757,0,0,0-.106,1.034.444.444,0,0,1-.87.122c-.323-1.054-.528-2.06-.884-3.012a6.28,6.28,0,0,0-.634-1.3,2.614,2.614,0,0,0-.414-.472c-.07-.037-.158-.128-.2-.133s-.045-.063-.219-.071l-.2-.026c.088.006-.057.014-.072.019a.735.735,0,0,0-.264.052.892.892,0,0,0-.424.271,2.331,2.331,0,0,0-.5,1.135,6.987,6.987,0,0,0,.1,2.874l0,.01a.561.561,0,0,1-1.074.322,10.511,10.511,0,0,0-2.137-3.653,4.7,4.7,0,0,0-.758-.684,2.31,2.31,0,0,0-.42-.255,2.009,2.009,0,0,0-.436-.165,2.455,2.455,0,0,0-.448-.056c-.148.022-.3.043-.443.079-.138.073-.288.12-.427.206l-.4.3-.02.017a1.684,1.684,0,0,0-.38.5,3.973,3.973,0,0,0-.238.671,7.684,7.684,0,0,0-.208,1.5C30.695,263.133,30.795,264.174,30.783,265.22Z" transform="translate(804.214 403.874)"/><path class="c" d="M339.243,312.787a8.733,8.733,0,0,1-.677-1.651,14.932,14.932,0,0,1-.435-1.744,7.32,7.32,0,0,1-.146-1.825,3.625,3.625,0,0,1,.158-.956,1.747,1.747,0,0,1,.209-.479,1.242,1.242,0,0,1,.365-.431,1.688,1.688,0,0,1,1.035-.366,2.124,2.124,0,0,1,1.088.371,5.417,5.417,0,0,1,1.368,1.36,21.214,21.214,0,0,1,1.822,3.132l-1.059.25c.021-.475.007-.949.058-1.428a10.172,10.172,0,0,1,.209-1.44,5.5,5.5,0,0,1,.2-.725,3.721,3.721,0,0,1,.317-.721,2.7,2.7,0,0,1,.541-.693,3.2,3.2,0,0,1,.427-.284,2.75,2.75,0,0,1,.559-.126,3.623,3.623,0,0,1,.556.1c.144.077.286.163.424.252a3,3,0,0,1,.585.625,4.385,4.385,0,0,1,.391.675,5.73,5.73,0,0,1,.283.692,9.947,9.947,0,0,1,.371,1.4c.108.469.144.939.22,1.408l-.985.047a6.733,6.733,0,0,1,.607-2.676,1.8,1.8,0,0,1,.546-.61,1.277,1.277,0,0,1,.861-.2,2.548,2.548,0,0,1,1.289.7,7.906,7.906,0,0,1,1.547,2.138,9.3,9.3,0,0,1,.906,2.42,11.823,11.823,0,0,0-1.2-2.24,8.75,8.75,0,0,0-1.654-1.843,1.905,1.905,0,0,0-.957-.459c-.277-.01-.46.156-.618.476a6.19,6.19,0,0,0-.335,2.328.493.493,0,0,1-.975.09l-.008-.043c-.088-.436-.138-.884-.255-1.307a8.948,8.948,0,0,0-.379-1.25,5.228,5.228,0,0,0-.258-.574,3.287,3.287,0,0,0-.3-.513,1.891,1.891,0,0,0-.35-.374,1.172,1.172,0,0,1-.166-.1.179.179,0,0,1-.122-.022.171.171,0,0,1-.109.03,1.18,1.18,0,0,1-.139.1,1.655,1.655,0,0,0-.288.4,3.2,3.2,0,0,0-.229.539,4.375,4.375,0,0,0-.176.6,9.133,9.133,0,0,0-.2,1.281c-.053.435-.044.885-.07,1.326l0,.043a.556.556,0,0,1-1.057.207,22.653,22.653,0,0,0-1.636-3.052,5.269,5.269,0,0,0-1.054-1.2,1.785,1.785,0,0,0-.538-.284c-.06,0-.144,0-.215,0l-.11,0c.053-.006-.023.014-.029.019-.088.031-.194.037-.262.115a.578.578,0,0,0-.217.224,1.08,1.08,0,0,0-.166.317,2.938,2.938,0,0,0-.184.779,9.315,9.315,0,0,0-.028,1.711,14.235,14.235,0,0,0,.222,1.739A11.73,11.73,0,0,0,339.243,312.787Z" transform="translate(636.23 18.548)"/><path class="c" d="M469.8,198.345a8.873,8.873,0,0,1-1.013-1.6,4.9,4.9,0,0,1-.522-1.866,2.51,2.51,0,0,1,.665-1.925,3.132,3.132,0,0,1,1.867-.9,5.635,5.635,0,0,1,3.86.993,6.97,6.97,0,0,1,2.487,3.14l-1.081.22a11.572,11.572,0,0,1,.062-1.5,5.986,5.986,0,0,1,.114-.751l.188-.748.293-.734a7.493,7.493,0,0,1,.434-.694,3.066,3.066,0,0,1,.622-.609,2.172,2.172,0,0,1,.856-.4,1.82,1.82,0,0,1,1,.091,2.29,2.29,0,0,1,.8.52,4.559,4.559,0,0,1,.488.7,4.76,4.76,0,0,1,.313.738l.2.75.1.746c.073.5.045.986.071,1.479l0,.031a.5.5,0,0,1-1,.052v-.052a7.517,7.517,0,0,1,.093-1.5,3.943,3.943,0,0,1,.173-.746,4.4,4.4,0,0,1,.308-.724,2.837,2.837,0,0,1,.485-.65,2.093,2.093,0,0,1,.667-.484,2.276,2.276,0,0,1,.787-.236,3.042,3.042,0,0,1,.8.048,2.806,2.806,0,0,1,.734.272,2.394,2.394,0,0,1,.627.434,2.712,2.712,0,0,1,.513.545,2.847,2.847,0,0,1,.4.62,2.9,2.9,0,0,1,.288.667,2.75,2.75,0,0,1,.186.7,3.234,3.234,0,0,1,.084.708v.709l-.1-.7a4.02,4.02,0,0,0-.176-.672,2.649,2.649,0,0,0-.25-.641,2.733,2.733,0,0,0-.338-.588,2.527,2.527,0,0,0-.422-.517,3.352,3.352,0,0,0-1.063-.736,2.046,2.046,0,0,0-1.194-.17,1.455,1.455,0,0,0-.536.2,1.342,1.342,0,0,0-.438.367c-.157.117-.209.341-.321.5a3.313,3.313,0,0,0-.2.586,2.916,2.916,0,0,0-.1.629,8.937,8.937,0,0,0-.01,1.309l-1,.033c-.041-.448-.031-.91-.11-1.346l-.112-.655-.188-.613a5.143,5.143,0,0,0-.252-.559,3.791,3.791,0,0,0-.317-.458c-.137-.076-.248-.231-.381-.238a.664.664,0,0,0-.383-.04,1.1,1.1,0,0,0-.406.212c-.148.069-.25.259-.381.381-.112.159-.2.341-.314.507l-.241.581-.164.624a5.6,5.6,0,0,0-.1.648,10.25,10.25,0,0,0-.071,1.328l0,.052a.558.558,0,0,1-1.077.169,6.02,6.02,0,0,0-2.023-2.73,4.915,4.915,0,0,0-3.2-1.049,2.429,2.429,0,0,0-1.5.585,2.128,2.128,0,0,0-.651,1.479,4.614,4.614,0,0,0,.3,1.767A11.623,11.623,0,0,0,469.8,198.345Z" transform="translate(657.413)"/><path class="c" d="M195.576,235.642l-.47-.687a2.628,2.628,0,0,1-.38-.749,2.435,2.435,0,0,1-.238-.829,2.213,2.213,0,0,1-.021-.879l.069-.449.188-.416a2.343,2.343,0,0,1,.536-.743,4.781,4.781,0,0,1,.738-.548,6.228,6.228,0,0,1,.856-.314,3.918,3.918,0,0,1,.906-.113,3.366,3.366,0,0,1,.915.088,2.916,2.916,0,0,1,.879.3l.423.206.371.291c.121.1.246.2.362.306l.286.373.281.378c.073.136.13.28.2.421a3.48,3.48,0,0,1,.315.864l.185.894-1.1.071a12.234,12.234,0,0,1,.164-2.688,5.886,5.886,0,0,1,.458-1.368,2.717,2.717,0,0,1,.489-.655,1.9,1.9,0,0,1,.793-.472,4.284,4.284,0,0,1,.488-.049,2.315,2.315,0,0,1,.449.084,2.605,2.605,0,0,1,.741.365,4.988,4.988,0,0,1,.558.492c.152.18.328.351.458.538a8.11,8.11,0,0,1,.724,1.152c.226.391.382.8.577,1.2l-.993.156a8.6,8.6,0,0,1,.353-1.506,3.3,3.3,0,0,1,.3-.72,3.678,3.678,0,0,1,.412-.677,3.262,3.262,0,0,1,.524-.6,2.73,2.73,0,0,1,.646-.489,2.6,2.6,0,0,1,.752-.326,3.178,3.178,0,0,1,.818-.1,2.772,2.772,0,0,1,.8.178l.374.16.323.238a2.814,2.814,0,0,1,.545.564,3.883,3.883,0,0,1,.394.655,4.609,4.609,0,0,1,.262.7,3.773,3.773,0,0,1,.16.721,7.736,7.736,0,0,1,.081,1.454,9.819,9.819,0,0,0-.3-1.406,3.465,3.465,0,0,0-.233-.665,4,4,0,0,0-.319-.616,3.283,3.283,0,0,0-.416-.536,2.23,2.23,0,0,0-.508-.415l-.272-.169-.3-.1a2.12,2.12,0,0,0-.609-.092,2.48,2.48,0,0,0-.6.123,1.875,1.875,0,0,0-.548.288,2.012,2.012,0,0,0-.47.415,2.508,2.508,0,0,0-.384.514,2.8,2.8,0,0,0-.294.58,2.963,2.963,0,0,0-.217.622,7.59,7.59,0,0,0-.257,1.314.53.53,0,0,1-.614.431.541.541,0,0,1-.379-.276c-.194-.363-.358-.748-.576-1.091a9.5,9.5,0,0,0-.662-1c-.115-.163-.255-.285-.378-.431a4.149,4.149,0,0,0-.4-.352,1.607,1.607,0,0,0-.4-.2,1.653,1.653,0,0,0-.177-.036.434.434,0,0,1-.15.015.776.776,0,0,0-.283.194c-.107.064-.178.246-.277.365a4.766,4.766,0,0,0-.36,1.052,8.833,8.833,0,0,0-.15,1.192c-.048.4-.01.817-.03,1.227a.554.554,0,0,1-1.1.071l-.127-.736a2.558,2.558,0,0,0-.226-.7c-.046-.11-.084-.229-.136-.338l-.207-.291-.2-.3-.266-.238-.262-.245-.313-.177a2.1,2.1,0,0,0-.666-.279,2.572,2.572,0,0,0-.723-.126,3.108,3.108,0,0,0-.741.036,6.208,6.208,0,0,0-.715.2,4.317,4.317,0,0,0-.621.4,2.239,2.239,0,0,0-.48.551l-.2.317-.1.364a1.851,1.851,0,0,0-.072.764,2.174,2.174,0,0,0,.126.778,2.988,2.988,0,0,0,.269.77Z" transform="translate(612.892 6.095)"/><path class="c" d="M374.63,484.648a12.872,12.872,0,0,1,.109-1.4,10.169,10.169,0,0,1,.289-1.394c.08-.226.144-.458.241-.684a4.562,4.562,0,0,1,.345-.658,2.478,2.478,0,0,1,.516-.588,1,1,0,0,1,.349-.231,1.113,1.113,0,0,1,.413-.149,1.671,1.671,0,0,1,.888.084,2.648,2.648,0,0,1,.692.446,4.874,4.874,0,0,1,.958,1.182,8.6,8.6,0,0,1,.665,1.3c.2.443.334.9.5,1.349l-1.037.208a5.548,5.548,0,0,1,.309-2.533,5.9,5.9,0,0,1,1.34-2.181,3.023,3.023,0,0,1,1.2-.771,1.584,1.584,0,0,1,.888-.039,1.488,1.488,0,0,1,.78.534,2.833,2.833,0,0,1,.46,1.375,6.621,6.621,0,0,1-.009,1.263l-1-.328a11.779,11.779,0,0,1,.929-1.2,6.848,6.848,0,0,1,1.145-1.05l.7-.4a5.885,5.885,0,0,1,.787-.245,2.622,2.622,0,0,1,.842-.026,2.234,2.234,0,0,1,.81.238,2.832,2.832,0,0,1,.667.489,2.926,2.926,0,0,1,.474.646,2.4,2.4,0,0,1,.3.717,3.19,3.19,0,0,1,.156.744,3.567,3.567,0,0,1,.045.745,3.624,3.624,0,0,1-.043.737,4.179,4.179,0,0,1-.121.722l-.188.7.062-.721a6.126,6.126,0,0,0,.013-.715,6,6,0,0,0-.183-1.391,2.939,2.939,0,0,0-.227-.646,2.584,2.584,0,0,0-.322-.58,2.388,2.388,0,0,0-.416-.484,2.172,2.172,0,0,0-.519-.319,1.474,1.474,0,0,0-.577-.117,1.81,1.81,0,0,0-.592.066,6.011,6.011,0,0,0-.573.23l-.533.363-.485.449c-.163.146-.3.339-.445.5a11.145,11.145,0,0,0-.789,1.114l-.007.009a.549.549,0,0,1-.991-.337,7.261,7.261,0,0,0-.023-1.061,1.83,1.83,0,0,0-.252-.813c-.127-.127-.167-.149-.416-.084a2.1,2.1,0,0,0-.73.5,5.056,5.056,0,0,0-1.407,3.783.535.535,0,0,1-.494.571.541.541,0,0,1-.544-.363c-.142-.428-.258-.87-.421-1.286a11.824,11.824,0,0,0-.527-1.22,4.1,4.1,0,0,0-.708-1.043,1.875,1.875,0,0,0-.443-.35,2.348,2.348,0,0,1-.237-.08,1.179,1.179,0,0,0-.239-.006c-.084-.021-.159.045-.243.066a.522.522,0,0,0-.239.134,1.844,1.844,0,0,0-.434.424,5.032,5.032,0,0,0-.676,1.137,9.767,9.767,0,0,0-.451,1.3C374.829,483.73,374.738,484.194,374.63,484.648Z" transform="translate(701.19 133.749)"/><path class="c" d="M205.521,351.15a6.23,6.23,0,0,1-.782-3.019,2.189,2.189,0,0,1,.2-.828,1.56,1.56,0,0,1,.61-.679,2.009,2.009,0,0,1,.863-.246,1.778,1.778,0,0,1,.907.206,2.666,2.666,0,0,1,.712.5,4.874,4.874,0,0,1,.557.618,9.768,9.768,0,0,1,.86,1.363,23.965,23.965,0,0,1,1.244,2.869l-1.021.186a11.834,11.834,0,0,1,.11-1.632,5.541,5.541,0,0,1,.153-.809c.078-.265.128-.537.229-.8a7.35,7.35,0,0,1,.73-1.523,5.486,5.486,0,0,1,.552-.691,2.76,2.76,0,0,1,.749-.574,2.022,2.022,0,0,1,1.008-.277,4.291,4.291,0,0,1,.565.085c.164.08.328.171.484.265a2.823,2.823,0,0,1,.666.729,4.784,4.784,0,0,1,.384.8c.08.271.179.543.241.815l.126.811c.08.542.071,1.074.109,1.61l-1.008-.1a7.49,7.49,0,0,1,1.2-2.76,2.026,2.026,0,0,1,1.472-.877,1.821,1.821,0,0,1,1.467.843,4.732,4.732,0,0,1,.761,2.861,6.309,6.309,0,0,1-.7,2.775,7.018,7.018,0,0,0,.321-2.762,4.73,4.73,0,0,0-.9-2.47,1.127,1.127,0,0,0-.911-.489,1.256,1.256,0,0,0-.82.63,7.694,7.694,0,0,0-.893,2.476.509.509,0,0,1-1-.056l-.006-.044c-.055-.494-.063-1-.153-1.482l-.137-.716-.212-.67a3.561,3.561,0,0,0-.286-.591,1.744,1.744,0,0,0-.37-.408,1.013,1.013,0,0,1-.194-.112.962.962,0,0,1-.2-.02.9.9,0,0,0-.457.146,1.948,1.948,0,0,0-.472.369,4.472,4.472,0,0,0-.422.515,6.276,6.276,0,0,0-.62,1.263c-.091.221-.135.462-.207.691a4.917,4.917,0,0,0-.145.714,10.647,10.647,0,0,0-.153,1.458l-.006.06a.523.523,0,0,1-1.015.124c-.339-.984-.664-1.928-1.07-2.841a9.056,9.056,0,0,0-.692-1.3,4.272,4.272,0,0,0-.435-.558,2.03,2.03,0,0,0-.509-.422,1.119,1.119,0,0,0-.559-.18c-.094.015-.156-.042-.294.02-.1.034-.291.088-.323.1a1.019,1.019,0,0,0-.451.4,1.766,1.766,0,0,0-.234.639,4.832,4.832,0,0,0,.027,1.485A8.337,8.337,0,0,0,205.521,351.15Z" transform="translate(614.568 25.18)"/><path class="c" d="M250.537,443.33c-.185-.562-.465-1.086-.681-1.638a16.973,16.973,0,0,1-.615-1.685,4.809,4.809,0,0,1-.243-1.851,1.745,1.745,0,0,1,.4-.992,3.443,3.443,0,0,1,.315-.332,3.294,3.294,0,0,1,.493-.3,2.331,2.331,0,0,1,1.059-.143,3.692,3.692,0,0,1,.974.269,5.683,5.683,0,0,1,.841.472,6.942,6.942,0,0,1,.753.577,9.017,9.017,0,0,1,1.247,1.4,5.121,5.121,0,0,1,.871,1.778l-1.092.149a9.874,9.874,0,0,1-.016-1.259,7.031,7.031,0,0,1,.174-1.278,4.816,4.816,0,0,1,.527-1.265,2.912,2.912,0,0,1,.515-.567,3.118,3.118,0,0,1,.336-.237c.136-.056.277-.106.417-.149a1.635,1.635,0,0,1,.884.05,2.088,2.088,0,0,1,.712.4,3.756,3.756,0,0,1,.821,1.147,6.394,6.394,0,0,1,.413,1.229,10.6,10.6,0,0,1,.209,1.239l-1.082-.008a9.642,9.642,0,0,1,.484-1.754,10.976,10.976,0,0,1,.751-1.62,7.394,7.394,0,0,1,.5-.757,4.385,4.385,0,0,1,.636-.692,2.45,2.45,0,0,1,.845-.525,1.339,1.339,0,0,1,.518-.114,1.2,1.2,0,0,1,.53.044,1.235,1.235,0,0,1,.479.183l.22.122a1.06,1.06,0,0,1,.2.156,1.662,1.662,0,0,1,.332.419,3.608,3.608,0,0,1,.194.451,5.726,5.726,0,0,1,.2,1.773,12.548,12.548,0,0,1-.152,1.728,7.769,7.769,0,0,1-.177.844,1.9,1.9,0,0,1-.339.785,1.865,1.865,0,0,0,.214-.808c.03-.281.051-.563.065-.846a12.332,12.332,0,0,0-.04-1.685,6.13,6.13,0,0,0-.338-1.589c-.055-.107-.107-.235-.162-.321-.07-.069-.065-.142-.209-.234-.045-.029-.14-.117-.144-.1l-.16-.072a.665.665,0,0,0-.319-.1.583.583,0,0,0-.313,0,.673.673,0,0,0-.3.091,1.708,1.708,0,0,0-.563.414,3.591,3.591,0,0,0-.475.6,6.984,6.984,0,0,0-.4.694,12.534,12.534,0,0,0-.622,1.5,8.681,8.681,0,0,0-.372,1.547.543.543,0,0,1-1.07.048l-.013-.055c-.077-.362-.106-.744-.213-1.091a5.306,5.306,0,0,0-.348-1.01c-.076-.152-.17-.286-.25-.431a3.684,3.684,0,0,0-.3-.335c-.109-.063-.21-.166-.31-.172a.475.475,0,0,0-.277-.02.47.47,0,0,1-.141.049c-.048.03-.094.076-.144.107-.107.052-.18.21-.281.3a3.752,3.752,0,0,0-.386.911,6.016,6.016,0,0,0-.155,1.064,10.663,10.663,0,0,0,0,1.108l0,.059a.551.551,0,0,1-1.09.091,4.159,4.159,0,0,0-.646-1.4,8.053,8.053,0,0,0-1.057-1.279,5.933,5.933,0,0,0-.618-.544,4.7,4.7,0,0,0-.673-.443,2.831,2.831,0,0,0-.713-.253,1.576,1.576,0,0,0-.686.038c-.1.037-.174.094-.274.131a2.816,2.816,0,0,0-.315.289,1.111,1.111,0,0,0-.277.612,5.061,5.061,0,0,0,.063,1.659,17,17,0,0,0,.414,1.706A16.886,16.886,0,0,1,250.537,443.33Z" transform="translate(440.761 17.656)"/><path class="c" d="M425.108,381.243a17.638,17.638,0,0,1-1.16-4.338,5.684,5.684,0,0,1,.114-2.329,2.15,2.15,0,0,1,.249-.58,1.641,1.641,0,0,1,.419-.517,2.527,2.527,0,0,1,1.156-.525,2.648,2.648,0,0,1,1.346.22,4.488,4.488,0,0,1,1.045.663,8.342,8.342,0,0,1,1.559,1.752,14.931,14.931,0,0,1,2.053,4.143L430.8,380l-.143-.928a4.155,4.155,0,0,1-.069-.943,4.765,4.765,0,0,1,.045-.96,5.27,5.27,0,0,1,.207-.965,3.724,3.724,0,0,1,.429-.924,2.9,2.9,0,0,1,.686-.8,2.938,2.938,0,0,1,.932-.553,2.9,2.9,0,0,1,1.084-.143l.545.064c.167.056.336.124.5.19a3.408,3.408,0,0,1,.885.555,8.8,8.8,0,0,1,.679.752l.481.861.314.909a7.237,7.237,0,0,1,.184.925,3.742,3.742,0,0,1,.081.929l.009.925-.908-.026a13.326,13.326,0,0,1,.191-1.426l.179-.71.3-.694a4.557,4.557,0,0,1,.474-.632,1.809,1.809,0,0,1,.729-.418,1.722,1.722,0,0,1,.838-.04,2.445,2.445,0,0,1,.717.326,2.385,2.385,0,0,1,.558.5,2.945,2.945,0,0,1,.432.589,4.762,4.762,0,0,1,.542,1.316,3.439,3.439,0,0,1,.126.694,2.991,2.991,0,0,1,.036.7,3.945,3.945,0,0,1-.057.693l-.134.675.043-.684a3.766,3.766,0,0,0-.031-.678,2.865,2.865,0,0,0-.1-.666,2.97,2.97,0,0,0-.184-.641,3.215,3.215,0,0,0-.266-.607,3.136,3.136,0,0,0-.345-.553,2.6,2.6,0,0,0-.429-.478,1.906,1.906,0,0,0-.5-.365,1.825,1.825,0,0,0-.536-.213,1.077,1.077,0,0,0-.513.062c-.172.021-.288.19-.431.283a5.07,5.07,0,0,0-.316.482l-.21.579-.119.631a12.317,12.317,0,0,0-.1,1.3.454.454,0,0,1-.9.015l0-.04a11.551,11.551,0,0,0-.169-1.668,6.062,6.062,0,0,0-.181-.8l-.284-.756-.4-.672c-.181-.176-.334-.384-.522-.541-.212-.113-.379-.32-.61-.367l-.323-.126-.336-.031a.7.7,0,0,0-.329.021,1.606,1.606,0,0,0-.322.069,2.179,2.179,0,0,0-1.015.892,2.934,2.934,0,0,0-.307.675,4.283,4.283,0,0,0-.169.758,3.792,3.792,0,0,0-.043.8,3.337,3.337,0,0,0,.05.816l.116.823,0,.028a.563.563,0,0,1-1.1.24,15.279,15.279,0,0,0-1.8-3.869,9.138,9.138,0,0,0-1.324-1.633,3.67,3.67,0,0,0-.8-.581,2.037,2.037,0,0,0-.43-.166c-.143-.042-.249-.026-.384-.062a1.8,1.8,0,0,0-.874.314.986.986,0,0,0-.3.328,1.562,1.562,0,0,0-.214.427,6.107,6.107,0,0,0-.252,2.088A20.768,20.768,0,0,0,425.108,381.243Z" transform="translate(650.197 29.589)"/><path class="c" d="M375.87,267.228a4.925,4.925,0,0,1-.507-.9,9.58,9.58,0,0,1-.8-4.261,5.077,5.077,0,0,1,.145-1.035,4.8,4.8,0,0,1,.509.9,9.5,9.5,0,0,1,.642,2.082,9.821,9.821,0,0,1,.157,2.18A5.077,5.077,0,0,1,375.87,267.228Z" transform="translate(642.177 11.394)"/><path class="c" d="M367.993,270.117s-.059-.07-.145-.2-.217-.288-.336-.459a6.783,6.783,0,0,1-.806-1.466,5.173,5.173,0,0,1-.359-1.688,2.7,2.7,0,0,1,.1-.841,4.262,4.262,0,0,1,.538.63,6.722,6.722,0,0,1,.808,1.479,7.055,7.055,0,0,1,.262.873,4.373,4.373,0,0,1,.1.829,1.651,1.651,0,0,1-.073.618C368.03,270.036,367.993,270.117,367.993,270.117Z" transform="translate(640.843 12.115)"/><path class="c" d="M366.315,272.29a4.358,4.358,0,0,1-.9-.335,5.5,5.5,0,0,1-1.626-1.277,7.037,7.037,0,0,1-1.065-1.729,4.259,4.259,0,0,1-.281-.922,4.358,4.358,0,0,1,.81.515,9.638,9.638,0,0,1,1.415,1.374,8.748,8.748,0,0,1,.636.779c.1.124.17.272.274.393s.188.245.269.36A4.365,4.365,0,0,1,366.315,272.29Z" transform="translate(640.208 12.531)"/></g></svg>