<svg xmlns="http://www.w3.org/2000/svg" width="94.265" height="59.634" viewBox="0 0 94.265 59.634"><path d="M57.44.184c-9.5.362-19.015.752-28.477,1.758-6.949.739-15.674.95-21.376,5.534C1.766,12.157.4,21.117.041,28.135-.3,34.814,1.5,42.263,7.318,46.267c3.641,2.505,8.118,2.888,12.4,3.113,5.215.274,10.444.379,15.667.372,9.421-.011,19.335.017,28.743-1.545a17.318,17.318,0,0,1-4.242,8.25,1.316,1.316,0,0,0,1.27,2.181A22.682,22.682,0,0,0,75.443,48.109a53.2,53.2,0,0,0,7.255-1.3c3.3-.84,6.578-1.713,8.025-5.079,1.412-3.287,1.614-7.389,1.988-10.925a72.195,72.195,0,0,0,.364-13.777C91.5-.989,71.043-.335,57.44.184Z" transform="translate(0.509 0.444)" fill="none" stroke="#152b40" stroke-width="1"/></svg>