<svg xmlns="http://www.w3.org/2000/svg" width="78.704" height="49.852" viewBox="0 0 78.704 49.852"><path d="M58.544,24.694c-7.918-.3-15.842-.627-23.725-1.465-5.789-.616-13.059-.792-17.809-4.611-4.85-3.9-5.984-11.365-6.287-17.211-.288-5.565,1.214-11.771,6.063-15.107,3.034-2.087,6.763-2.406,10.332-2.593,4.345-.228,8.7-.315,13.052-.31,7.849.009,16.109-.014,23.947,1.287a14.428,14.428,0,0,0-3.534-6.874,1.1,1.1,0,0,1,1.058-1.817,18.9,18.9,0,0,1,11.9,8.772,44.318,44.318,0,0,1,6.045,1.084c2.749.7,5.481,1.427,6.686,4.232,1.177,2.739,1.344,6.156,1.656,9.1a60.15,60.15,0,0,1,.3,11.478C86.924,25.671,69.877,25.126,58.544,24.694Z" transform="translate(88.884 25.3) rotate(180)" fill="none" stroke="#152b40" stroke-width="1"/></svg>