<svg xmlns="http://www.w3.org/2000/svg" width="21.282" height="23.501" viewBox="0 0 21.282 23.501"><defs><style>.a{opacity:0.05;}</style></defs><g class="a" transform="matrix(0.899, -0.438, 0.438, 0.899, -2.394, 7.022)"><path d="M2.78,7.463c1.533,0,2.78-1.674,2.78-3.731S4.314,0,2.78,0,0,1.674,0,3.731,1.247,7.463,2.78,7.463Z" transform="translate(3.982 0)"/><path d="M2.78,7.463c1.532,0,2.78-1.674,2.78-3.731S4.312,0,2.78,0,0,1.674,0,3.731,1.247,7.463,2.78,7.463Z" transform="translate(10.458 0)"/><path d="M2.785.033C1.579-.2.39.859.075,2.457S.459,5.488,1.665,5.725,4.06,4.9,4.374,3.3,3.99.27,2.785.033Z" transform="translate(15.551 5.46)"/><path d="M4.374,2.457C4.06.859,2.87-.2,1.664.033S-.239,1.706.075,3.3,1.58,5.962,2.785,5.725,4.688,4.052,4.374,2.457Z" transform="translate(0 5.46)"/><path d="M10.679,3.571A4.185,4.185,0,0,0,6.586,0,4.185,4.185,0,0,0,2.494,3.571,4.262,4.262,0,0,0,0,7.469a4.2,4.2,0,0,0,4.146,4.252,4.055,4.055,0,0,0,2.44-.817,4.055,4.055,0,0,0,2.44.817,4.2,4.2,0,0,0,4.146-4.252A4.262,4.262,0,0,0,10.679,3.571Z" transform="translate(3.414 8.279)"/></g></svg>