<svg xmlns="http://www.w3.org/2000/svg" width="371.32" height="190.452" viewBox="0 0 371.32 190.452"><defs><style>.a{fill:#9ab76c;}.b{fill:#a5653e;}.c{fill:#814b2a;}.d{fill:#5c3518;}.e{fill:none;stroke:#dfa251;stroke-linecap:round;stroke-miterlimit:10;stroke-width:14px;}.f{fill:#b27027;}.g{fill:#c78534;}.h{fill:#dfa251;}.i{fill:#f3a5ae;}.j{fill:#11201c;}.k{fill:#9c571a;}.l{fill:#ffe2d1;}</style></defs><g transform="translate(-690.163 -378)"><path class="a" d="M175.581,429.36a10.8,10.8,0,0,1-.209-1.544,22.7,22.7,0,0,1,.531-6.667,10.279,10.279,0,0,1,.452-1.476,11.2,11.2,0,0,1,.212,1.552,22.6,22.6,0,0,1-.534,6.652A10.791,10.791,0,0,1,175.581,429.36Z" transform="translate(609.785 37.187)"/><path class="a" d="M184.75,430.339a11.772,11.772,0,0,1,.136-1.607,8.089,8.089,0,0,1,.35-1.6c.172-.58.4-1.189.618-1.8a16.583,16.583,0,0,1,1.733-3.062,11.3,11.3,0,0,1,1.037-1.238,11.773,11.773,0,0,1-.445,1.547c-.163.442-.351.959-.555,1.513s-.453,1.121-.7,1.692-.464,1.142-.72,1.666c-.113.269-.262.51-.366.762s-.214.487-.316.7A11.609,11.609,0,0,1,184.75,430.339Z" transform="translate(611.318 37.408)"/><path class="a" d="M193.028,430.623a3.5,3.5,0,0,1,.064-.858,5.43,5.43,0,0,1,.628-1.68,4.35,4.35,0,0,1,1.247-1.337,3.1,3.1,0,0,1,.773-.388,4.13,4.13,0,0,1-.259.815c-.1.219-.216.455-.331.724a7.87,7.87,0,0,1-.432.781,7.489,7.489,0,0,1-1.035,1.387A3.553,3.553,0,0,1,193.028,430.623Z" transform="translate(612.663 38.273)"/><path class="b" d="M-2656.538,12808.563c7.329-.63,80.236-21.632,298.742,12.787,45.8,6.847,51.851,17.809,10.814,23.142s19.069,7.2,19.069,7.2-44.037,11.473-78.419,9.73c-1.488.978,21.059-17.266,0-9.73s-46.865,16.518-128.894,6.009-41.767,10.189-12.408,16.117-116.75,6.433-135.063,0,0-16.117,0-16.117-19.769-17.514,5.613-23.6,12.4-5.979,9.518-12.752S-2663.867,12809.193-2656.538,12808.563Z" transform="translate(3381 -12310)"/><path class="c" d="M13,0c7.18,0,13,3.134,13,7s-5.82,4.063-13,4.063S0,10.866,0,7,5.82,0,13,0Z" transform="translate(766 514)"/><path class="c" d="M13,0c7.18,0,13,3.134,13,7S20.18,17.862,13,17.862,0,10.866,0,7,5.82,0,13,0Z" transform="translate(756 486)"/><path class="c" d="M6.5,0A6.764,6.764,0,0,1,13,7c0,3.866-2.91,3.385-6.5,3.385S0,10.866,0,7A6.764,6.764,0,0,1,6.5,0Z" transform="translate(812 485)"/><path class="c" d="M14.5,0c8.008,0,7.825,4.477,7.825,10s.183,10-7.825,10S0,15.523,0,10,6.492,0,14.5,0Z" transform="translate(993 500)"/><path class="c" d="M-2675.584,12841c4.185,2.854,11.257,11.732,24.643,5.646s3.446-15.729,3.446-15.729l-20.187,4.314S-2679.769,12838.146-2675.584,12841Z" transform="translate(3381 -12310)"/><path class="d" d="M-2599,12820c-3.028,2.006,12.252-6.748,35.278-4.509a241.681,241.681,0,0,0,43.794,0s44.676,3.029,51.33,4.509,14.133,1.222,17.268,0-.342,7.4-4.284,7.105-34.12,2.472-42.073,5.093-62.07,3.2-72.457-2.645S-2595.972,12817.994-2599,12820Z" transform="translate(3381 -12310)"/><path class="c" d="M14.5,0C22.508,0,29,4.477,29,10s-6.492,6.79-14.5,6.79S0,15.523,0,10,6.492,0,14.5,0Z" transform="translate(900 517)"/><g transform="translate(456 87)"><path class="e" d="M419.9,444.233s23.093-14.649,16.179-43.072" transform="translate(0 -5)"/><path class="f" d="M397.56,390.061c-28.041-1.791-22.414,24.039-22.414,24.039v31.72l35.467,1.289c18.144,0,21.675-3.971,21.713-4.5C432.326,425.57,425.6,391.852,397.56,390.061Z"/><path class="g" d="M378.785,446.44c.024-.246.039-3.512.039-3.814v-35.9a11.893,11.893,0,0,1,23.773.621v24.9c0,4.559.059,11.242.172,14.19h21.44V388.212c0-15.4-14.794-31.688-30.227-31.688h2.284A39.017,39.017,0,0,0,357.212,395.5V443.44Z"/><path class="h" d="M407.857,367.292H373.941a20.059,20.059,0,0,1-20-20V311.375a20.059,20.059,0,0,1,20-20h33.916a20.059,20.059,0,0,1,20,20v35.917A20.059,20.059,0,0,1,407.857,367.292Z"/><path class="i" d="M381.852,359.41l.217,17.057a7.684,7.684,0,0,0,7.823,7.549l.224-.006a7.7,7.7,0,0,0,7.451-7.925l-.208-16.675Z"/><path class="j" d="M404.828,322.8c0,2.627,1.326,4.756,2.96,4.756s2.961-2.129,2.961-4.756-1.326-4.755-2.961-4.755S404.828,320.173,404.828,322.8Z"/><path class="j" d="M370.946,323.551c0,2.626,1.325,4.755,2.96,4.755s2.96-2.129,2.96-4.755-1.325-4.755-2.96-4.755S370.946,320.925,370.946,323.551Z"/><path class="k" d="M367.479,292.453s-2.951-.837-14.765,9.855-16.795,19.7-18.166,32.6l-.591,5.564a14.958,14.958,0,0,0,10.513,15.986h0a14.88,14.88,0,0,0,15.183-4.233l2.532-2.747a15.31,15.31,0,0,0,3.206-15.388l-3.217-9.227a34.144,34.144,0,0,1-.167-21.911Z"/><path class="l" d="M412.219,345.957l-8.008-9.287c-4.658-5.4-7.211-8.289-7.211-15.418V291H386v30.252c0,7.129-2.774,10.021-7.432,15.418l-7.91,9.287A11.279,11.279,0,0,0,368,353.393v5.895a11.24,11.24,0,0,0,11.166,11.426c4.1,0,7.743-2.714,9.764-5.714H393.7c2.021,3,5.814,5.714,9.909,5.714A11.431,11.431,0,0,0,415,359.288v-5.895A11.4,11.4,0,0,0,412.219,345.957Z"/><path class="k" d="M415.288,292.82s6.626,2.051,16.146,10.68c9.745,8.833,14.583,19.842,15.639,32.774l.456,5.578a14.958,14.958,0,0,1-10.9,15.725h0a14.875,14.875,0,0,1-15.075-4.6l-2.466-2.808a15.311,15.311,0,0,1-2.83-15.461l3.439-9.147a34.134,34.134,0,0,0,.7-21.9Z"/><path class="j" d="M391,339.189v-.007l.5,0c.066,0-.5,0,.5,0v.007c6,.144,11.245,3.878,7.559,10.215-6.793,11.679-12.672,5.826-16.939,0C378.43,343.682,384,339.333,391,339.189Z"/></g><path class="b" d="M-2572.6,12829.531s41.111,13.862,94.786,0c1.763.59,0,26.538,0,26.538l-101.171-8.365Z" transform="translate(3381 -12310)"/><path class="c" d="M14.5,0C22.508,0,29,3.134,29,7S18.579,18.589,10.571,18.589,0,10.866,0,7,6.492,0,14.5,0Z" transform="translate(856 524)"/></g></svg>