<svg xmlns="http://www.w3.org/2000/svg" width="32.775" height="25.66" viewBox="0 0 32.775 25.66"><defs><style>.a{fill:#fff;}.b{fill:#efac36;}</style></defs><g transform="translate(-636.841 -328.395)"><g transform="translate(636.841 328.735)"><path class="a" d="M651.931,333.289a7.238,7.238,0,0,0-5.251-2.617,4.693,4.693,0,0,0-4.061,1.767,1.837,1.837,0,0,0-.731-1.343,4.454,4.454,0,0,0-2.43-.459q-1.8,0-2.277.918a2.79,2.79,0,0,0-.289.85,9.4,9.4,0,0,0-.051,1.156v19.848a9.4,9.4,0,0,0,.051,1.156,2.588,2.588,0,0,0,.306.849,1.451,1.451,0,0,0,.884.68,5.615,5.615,0,0,0,1.682.2,5.448,5.448,0,0,0,1.665-.2,1.432,1.432,0,0,0,.867-.7,2.761,2.761,0,0,0,.306-.867,9.455,9.455,0,0,0,.051-1.155v-3.427a1.489,1.489,0,0,0-.977-.351h-1.9a1.158,1.158,0,0,1-1.1-.782l-.432-1.256,0-.008a.367.367,0,0,1,.239-.461l2.266-.728a.161.161,0,0,0,.107-.112l.066-.244a1.355,1.355,0,0,1,1.1-.988l1.508-.233a1.018,1.018,0,0,1,.4.018l.19.047a2.031,2.031,0,0,1,1.276.965l.722,1.269a.161.161,0,0,1,.021.08,1.911,1.911,0,0,0,.98.891,7.4,7.4,0,0,0,4.824-2.6,8.721,8.721,0,0,0-.017-12.167Zm-4.2,8.123a2.839,2.839,0,0,1-2.107.884,2.6,2.6,0,0,1-2.039-.9,2.927,2.927,0,0,1-.8-1.988,3.026,3.026,0,0,1,.782-2.005,2.606,2.606,0,0,1,2.09-.918,2.734,2.734,0,0,1,2.124.9,2.936,2.936,0,0,1,.816,2.022A2.79,2.79,0,0,1,647.734,341.412Z" transform="translate(-636.841 -330.978)"/><path class="a" d="M665.715,432.97a.178.178,0,1,0,.172-.222A.2.2,0,0,0,665.715,432.97Z" transform="translate(-661.34 -417.277)"/></g><g transform="translate(655.307 328.395)"><ellipse class="a" cx="0.189" cy="0.236" rx="0.189" ry="0.236" transform="translate(8.208 11.301)"/><path class="b" d="M772.364,338.1a3.848,3.848,0,0,0-1.648-1.649,12.663,12.663,0,0,0-4.35-1.291q-2.312-.306-2.311-1.326,0-.747,2.005-.748a5.649,5.649,0,0,1,2.4.51,4.6,4.6,0,0,0,1.512.51q.782,0,1.529-1.19a4.013,4.013,0,0,0,.748-2.005q0-.816-1.19-1.359a11.98,11.98,0,0,0-4.962-1.156q-7.375,0-7.375,5.37a6.955,6.955,0,0,0,.646,3.11,4.537,4.537,0,0,0,1.631,1.92,12.439,12.439,0,0,0,2.054,1.02l.107-.062.333-.194.385-.224c.013-.027.025-.053.038-.079s.037-.07.059-.1a1.505,1.505,0,0,1,.385-.415.269.269,0,0,1,.022-.017h0a7.485,7.485,0,0,1,.5-.913c.122-.192.252-.378.391-.557.045-.058.1-.12.173-.115.082.238.15.48.209.725h0c.145-.25.305-.493.466-.734.017-.025.039-.053.069-.051s.055.043.064.077a11.115,11.115,0,0,1,.308,1.375h0c.112.036.223.078.331.123a1.975,1.975,0,0,1,1.136.959c.039.094.067.193.1.288a.807.807,0,0,0,.058.124c0,.008.009.016.014.024.151.238.449.363.619.578l.013.018a.56.56,0,0,1,.075.132.823.823,0,0,1,.025.438c0,.018-.005.035-.008.052l-.005.029a2.533,2.533,0,0,1-.072.285,1.478,1.478,0,0,1-.052.14,1,1,0,0,1-.264.373,1.652,1.652,0,0,1-.828.289,16.215,16.215,0,0,0-1.8.4,5.529,5.529,0,0,0-.8.422,10.8,10.8,0,0,0-1.6,1.291.815.815,0,0,1,.024.225c-.016.415-.379.763-.372,1.178a1.425,1.425,0,0,0,.537.9l.077.079a11.146,11.146,0,0,0,1.3.077,12.484,12.484,0,0,0,5.455-1.054,4.3,4.3,0,0,0,1.852-1.852,6.309,6.309,0,0,0,.663-3.008A5.909,5.909,0,0,0,772.364,338.1Z" transform="translate(-758.718 -328.395)"/></g></g></svg>