<svg xmlns="http://www.w3.org/2000/svg" width="137.804" height="34" viewBox="0 0 137.804 34"><defs><style>.a{fill:#fff;}.b{fill:#efac36;}</style></defs><g transform="translate(-59 -88)"><g transform="translate(-291.295 -613.82)"><path class="a" d="M472.976,754.73a4.125,4.125,0,0,1-1.036,3.091,3.232,3.232,0,0,1-2.293,1H461.6a1.861,1.861,0,0,0,1.121,1.6,4.455,4.455,0,0,0,2.242.645,9.359,9.359,0,0,0,3.091-.407l.374-.136a3.425,3.425,0,0,1,1.359-.374q1.087,0,1.868,1.528a3.755,3.755,0,0,1,.442,1.563q0,3.024-7.235,3.023a10.91,10.91,0,0,1-4.466-.866,7.584,7.584,0,0,1-3.04-2.293,9.767,9.767,0,0,1-2.14-6.148,8.882,8.882,0,0,1,2.768-6.844,9.781,9.781,0,0,1,6.912-2.564q4.72,0,6.929,3.328A6.909,6.909,0,0,1,472.976,754.73Zm-7.167,1q1.291,0,1.291-1.087a1.532,1.532,0,0,0-.594-1.257,2.665,2.665,0,0,0-1.7-.475,3.434,3.434,0,0,0-2.191.9,2.525,2.525,0,0,0-1.087,1.919Z" transform="translate(-86.602 -37.744)"/><path class="a" d="M570,726.788l-2.208-.136v4.687a2.338,2.338,0,0,0,.289,1.324,1.249,1.249,0,0,0,1.087.408,11.023,11.023,0,0,1,1.223.051,2.416,2.416,0,0,1,.9.323q.781.441.781,2.276,0,2.14-.951,2.615a3.156,3.156,0,0,1-.9.289,9.5,9.5,0,0,1-1.138.051,7.953,7.953,0,0,1-5.367-1.6q-1.834-1.6-1.834-5.4v-5.027a8.959,8.959,0,0,1-1.393.1,1.558,1.558,0,0,1-1.24-.577,3.058,3.058,0,0,1-.492-1.97,8.539,8.539,0,0,1,.17-2.021,1.813,1.813,0,0,1,.476-.9,2.084,2.084,0,0,1,1.358-.442l1.121.136v-3.5a9.44,9.44,0,0,1,.051-1.155,2.136,2.136,0,0,1,.322-.815q.441-.848,2.616-.849,2.309,0,2.751,1.257a6.345,6.345,0,0,1,.17,1.732v3.328q1.494-.135,2.259-.136a9.6,9.6,0,0,1,1.155.051,2.723,2.723,0,0,1,.9.322q.883.442.883,2.616,0,2.14-.917,2.615a3.157,3.157,0,0,1-.9.289A9.854,9.854,0,0,1,570,726.788Z" transform="translate(-172.074 -10.6)"/><path class="b" d="M747.945,710.243a7.206,7.206,0,0,1,5.656,2.581,9.257,9.257,0,0,1,2.259,6.318v5.978a9.811,9.811,0,0,1-.051,1.172,2.725,2.725,0,0,1-.323.9q-.442.884-2.615.883-2.072,0-2.582-.883a2.7,2.7,0,0,1-.322-.917,10.75,10.75,0,0,1-.051-1.223v-5.944a2.94,2.94,0,0,0-.781-2.174,2.693,2.693,0,0,0-1.987-.781,3.309,3.309,0,0,0-2.123.73,2.6,2.6,0,0,0-1.053,1.647v6.589a9.816,9.816,0,0,1-.051,1.172,2.727,2.727,0,0,1-.322.9q-.442.884-2.615.883-2.14,0-2.615-.917a3.153,3.153,0,0,1-.289-.883,9.705,9.705,0,0,1-.051-1.188V704.775a9.772,9.772,0,0,1,.051-1.172,2.763,2.763,0,0,1,.289-.866q.475-.917,2.649-.917,2.14,0,2.582.917a2.731,2.731,0,0,1,.322.9,9.825,9.825,0,0,1,.051,1.172v7.506A5.026,5.026,0,0,1,747.945,710.243Z" transform="translate(-320.047 0)"/><path class="b" d="M946.916,754.73a4.125,4.125,0,0,1-1.036,3.091,3.23,3.23,0,0,1-2.292,1h-8.05a1.861,1.861,0,0,0,1.121,1.6,4.454,4.454,0,0,0,2.242.645,9.357,9.357,0,0,0,3.091-.407l.374-.136a3.423,3.423,0,0,1,1.359-.374q1.086,0,1.868,1.528a3.755,3.755,0,0,1,.441,1.563q0,3.024-7.235,3.023a10.912,10.912,0,0,1-4.467-.866,7.589,7.589,0,0,1-3.04-2.293,9.768,9.768,0,0,1-2.14-6.148,8.883,8.883,0,0,1,2.768-6.844,9.783,9.783,0,0,1,6.912-2.564q4.721,0,6.929,3.328A6.907,6.907,0,0,1,946.916,754.73Zm-7.167,1q1.29,0,1.291-1.087a1.532,1.532,0,0,0-.594-1.257,2.664,2.664,0,0,0-1.7-.475,3.435,3.435,0,0,0-2.191.9,2.526,2.526,0,0,0-1.087,1.919Z" transform="translate(-477.808 -37.744)"/><path class="b" d="M1055.706,754.73a4.128,4.128,0,0,1-1.036,3.091,3.232,3.232,0,0,1-2.293,1h-8.05a1.862,1.862,0,0,0,1.121,1.6,4.455,4.455,0,0,0,2.242.645,9.36,9.36,0,0,0,3.091-.407l.374-.136a3.422,3.422,0,0,1,1.358-.374q1.087,0,1.868,1.528a3.755,3.755,0,0,1,.441,1.563q0,3.024-7.234,3.023a10.912,10.912,0,0,1-4.467-.866,7.586,7.586,0,0,1-3.04-2.293,9.767,9.767,0,0,1-2.14-6.148,8.883,8.883,0,0,1,2.768-6.844,9.782,9.782,0,0,1,6.912-2.564q4.72,0,6.929,3.328A6.908,6.908,0,0,1,1055.706,754.73Zm-7.167,1q1.291,0,1.291-1.087a1.531,1.531,0,0,0-.594-1.257,2.664,2.664,0,0,0-1.7-.475,3.435,3.435,0,0,0-2.191.9,2.525,2.525,0,0,0-1.087,1.919Z" transform="translate(-567.607 -37.744)"/><g transform="translate(350.295 710.176)"><path class="a" d="M365.376,752.335a7.234,7.234,0,0,0-5.248-2.615,4.69,4.69,0,0,0-4.059,1.766,1.834,1.834,0,0,0-.73-1.342,4.452,4.452,0,0,0-2.428-.458q-1.8,0-2.276.917a2.794,2.794,0,0,0-.289.849,9.485,9.485,0,0,0-.051,1.155v19.836a9.493,9.493,0,0,0,.051,1.155,2.6,2.6,0,0,0,.306.849,1.451,1.451,0,0,0,.883.679,5.606,5.606,0,0,0,1.681.2,5.44,5.44,0,0,0,1.664-.2,1.431,1.431,0,0,0,.866-.7,2.754,2.754,0,0,0,.306-.866,9.444,9.444,0,0,0,.051-1.155v-3.425a1.486,1.486,0,0,0-.977-.35h-1.9a1.158,1.158,0,0,1-1.095-.782L351.7,766.6l0-.008a.367.367,0,0,1,.239-.461l2.264-.727a.162.162,0,0,0,.107-.112l.065-.244a1.355,1.355,0,0,1,1.1-.988l1.507-.233a1.029,1.029,0,0,1,.4.018l.19.047a2.029,2.029,0,0,1,1.275.964l.722,1.268a.161.161,0,0,1,.021.08,1.908,1.908,0,0,0,.979.891,7.392,7.392,0,0,0,4.821-2.6,8.715,8.715,0,0,0-.017-12.16Zm-4.195,8.118a2.838,2.838,0,0,1-2.106.883,2.6,2.6,0,0,1-2.038-.9,2.927,2.927,0,0,1-.8-1.988,3.024,3.024,0,0,1,.781-2,2.605,2.605,0,0,1,2.089-.917,2.732,2.732,0,0,1,2.123.9,2.934,2.934,0,0,1,.815,2.021A2.789,2.789,0,0,1,361.181,760.453Z" transform="translate(-350.295 -749.686)"/><path class="a" d="M375.341,838.478a.178.178,0,1,0,.172-.222A.2.2,0,0,0,375.341,838.478Z" transform="translate(-370.969 -822.795)"/></g><path class="a" d="M384.8,848.311l0,.005-.01-.011Z" transform="translate(-28.474 -120.914)"/><g transform="translate(437.586 710.006)"><path class="a" d="M875.571,798.845a.4.4,0,1,0-.4.4h0A.407.407,0,0,0,875.571,798.845Z" transform="translate(-870.507 -789.763)"/><path class="b" d="M863.571,749.782a2.3,2.3,0,0,0-1.07-.7,8.309,8.309,0,0,0-1.188-.289,8.97,8.97,0,0,0-1.342-.085,3.972,3.972,0,0,0-1.851.578,6.332,6.332,0,0,0-1.376.917,5.7,5.7,0,0,0-.492.578,1.953,1.953,0,0,0-.374-1.121q-.51-.781-2.547-.781-2.174,0-2.649.917a2.786,2.786,0,0,0-.289.866,9.923,9.923,0,0,0-.051,1.172v12.908a2.034,2.034,0,0,0,.612,1.46,3.744,3.744,0,0,0,2.344.578,6.8,6.8,0,0,0,1.263-.105H854.1a.912.912,0,0,1-.091-1.82.617.617,0,0,1,.071,0h2.114l-.079-.466a1.989,1.989,0,0,1-.027-.371,1.919,1.919,0,0,1,.232-.878h0v-.01l-.7-.378a2.752,2.752,0,0,0-.334,1.252v.055h-1.266l.009,0a6.874,6.874,0,0,1-.339-2.053,3.732,3.732,0,0,1,.3-1.484.691.691,0,0,0-.146-.764,3.091,3.091,0,0,0-.346-.275,1.828,1.828,0,0,1-.96-1.594,2.174,2.174,0,0,1,.877-1.661,3.11,3.11,0,0,1,1.781-.7c.027,0,.054,0,.081,0a1.282,1.282,0,0,1,.168-.582,4.03,4.03,0,0,1,2.092-1.789l.268-.1.091.269a4.541,4.541,0,0,1,.2,1.278,2.489,2.489,0,0,1,.734-.112,3.417,3.417,0,0,1,1.478.272,2.648,2.648,0,0,0,1.172.272,2.023,2.023,0,0,0,1.868-1.291,5.378,5.378,0,0,0,.645-2.378A2.4,2.4,0,0,0,863.571,749.782Z" transform="translate(-850.341 -748.712)"/></g><g transform="translate(402.416 709.836)"><path class="a" d="M695.215,811.527a.193.193,0,1,0-.189.236A.216.216,0,0,0,695.215,811.527Z" transform="translate(-686.813 -800.197)"/><path class="b" d="M662.507,757.437a3.847,3.847,0,0,0-1.647-1.648,12.654,12.654,0,0,0-4.348-1.29q-2.31-.306-2.31-1.325,0-.747,2-.747a5.645,5.645,0,0,1,2.395.51,4.6,4.6,0,0,0,1.512.509q.781,0,1.528-1.189a4.014,4.014,0,0,0,.747-2q0-.815-1.189-1.359a11.97,11.97,0,0,0-4.959-1.155q-7.371,0-7.371,5.367a6.943,6.943,0,0,0,.645,3.108,4.536,4.536,0,0,0,1.63,1.919,12.408,12.408,0,0,0,2.091,1.035l.133-.078.333-.193.385-.224c.012-.027.025-.053.038-.079s.037-.07.058-.1a1.5,1.5,0,0,1,.384-.415.258.258,0,0,1,.022-.017h0a7.422,7.422,0,0,1,.5-.912q.182-.287.39-.557c.044-.058.1-.12.173-.115.081.238.15.48.208.725h0c.145-.25.305-.493.466-.733.017-.025.039-.053.069-.052s.054.043.064.077a11.106,11.106,0,0,1,.308,1.375h0c.112.036.222.078.331.123a1.973,1.973,0,0,1,1.136.958c.039.094.067.193.1.288a.808.808,0,0,0,.057.123l.014.024c.151.238.449.363.618.578l.013.018a.55.55,0,0,1,.075.132.821.821,0,0,1,.025.437c0,.018-.005.035-.008.051l-.005.029a2.458,2.458,0,0,1-.072.285,1.486,1.486,0,0,1-.052.14,1.007,1.007,0,0,1-.264.373,1.652,1.652,0,0,1-.828.288,16.246,16.246,0,0,0-1.8.4,5.52,5.52,0,0,0-.8.421,10.8,10.8,0,0,0-1.6,1.29.814.814,0,0,1,.024.225c-.016.415-.379.762-.372,1.177a1.424,1.424,0,0,0,.537.9l.087.089a11.167,11.167,0,0,0,1.221.067,12.477,12.477,0,0,0,5.451-1.053,4.3,4.3,0,0,0,1.851-1.851,6.306,6.306,0,0,0,.662-3.006A5.9,5.9,0,0,0,662.507,757.437Z" transform="translate(-648.87 -747.74)"/></g></g></g></svg>