<svg xmlns="http://www.w3.org/2000/svg" width="12" height="12" viewBox="0 0 12 12"><defs><style>.a{fill:#e09717;}</style></defs><path class="a" d="M35.379,36H24.621A.621.621,0,0,1,24,35.379V24.621A.621.621,0,0,1,24.621,24h4.552a.621.621,0,0,1,0,1.241H25.241v9.517h9.517V30.828a.621.621,0,1,1,1.241,0v4.552A.621.621,0,0,1,35.379,36ZM34.345,25.655h-.878L28.8,30.32a.621.621,0,0,0,.878.878l4.665-4.665ZM36,27.931v-3.31A.621.621,0,0,0,35.379,24h-3.31a.621.621,0,1,0,0,1.241h2.69v2.69a.621.621,0,0,0,1.241,0Z" transform="translate(-24 -24)"/></svg>