<svg xmlns="http://www.w3.org/2000/svg" width="24" height="24" viewBox="0 0 24 24"><defs><style>.a{fill:#4267b2;}.b{fill:#fff;}</style></defs><path class="a" d="M22.675,0H1.324A1.324,1.324,0,0,0,0,1.325V22.676A1.324,1.324,0,0,0,1.325,24h21.35A1.324,1.324,0,0,0,24,22.676h0V1.324A1.324,1.324,0,0,0,22.675,0Zm0,0"/><path class="b" d="M213.867,97.7V88.418H217l.469-3.633h-3.6V82.472c0-1.049.291-1.764,1.8-1.764h1.907v-3.24a25.636,25.636,0,0,0-2.795-.143c-2.766,0-4.658,1.688-4.658,4.788v2.674H207v3.633h3.117V97.7Zm0,0" transform="translate(-197.297 -73.7)"/></svg>