<svg xmlns="http://www.w3.org/2000/svg" width="25.347" height="20" viewBox="0 0 25.347 20"><defs><style>.a{fill:#06256f;}</style></defs><g transform="translate(0 -46.336)"><g transform="translate(0 46.336)"><g transform="translate(0 0)"><path class="a" d="M24.313,46.336H1.034A1.047,1.047,0,0,0,0,47.37V65.3a1.047,1.047,0,0,0,1.034,1.034H24.313A1.047,1.047,0,0,0,25.347,65.3V47.37A1.01,1.01,0,0,0,24.313,46.336ZM23.279,58.714l-4.225-3.368a1.067,1.067,0,0,0-1.329.03l-4.756,4.136-6.292-7.09a1.171,1.171,0,0,0-.8-.355,1.073,1.073,0,0,0-.768.325L2.068,55.7V48.4H23.279Z" transform="translate(0 -46.336)"/></g></g><g transform="translate(9.276 49.024)"><g transform="translate(0 0)"><path class="a" d="M164.165,92.928a3.4,3.4,0,1,0,3.4,3.4A3.417,3.417,0,0,0,164.165,92.928Z" transform="translate(-160.768 -92.928)"/></g></g></g></svg>