<svg xmlns="http://www.w3.org/2000/svg" width="21.042" height="20" viewBox="0 0 21.042 20"><defs><style>.a{fill:#06256f;}</style></defs><g transform="translate(0 0)"><path class="a" d="M20.688,21.561l-9.441-8.6a1.074,1.074,0,0,0-1.453,0l-9.441,8.6a1.079,1.079,0,0,0,.727,1.877H2.588v8.619a.619.619,0,0,0,.619.619H8.381A.619.619,0,0,0,9,32.057V26.823h3.041v5.233a.619.619,0,0,0,.619.619h5.174a.619.619,0,0,0,.619-.619V23.438h1.508a1.079,1.079,0,0,0,.727-1.877Z" transform="translate(0 -12.675)"/></g></svg>