<svg xmlns="http://www.w3.org/2000/svg" width="12.377" height="18" viewBox="0 0 12.377 18"><defs><style>.a{fill:#efac36;}</style></defs><g transform="translate(-79.968 0)"><path class="a" d="M91.485,3.082A6.108,6.108,0,0,0,86.295,0c-.092,0-.185,0-.277,0a6.108,6.108,0,0,0-5.19,3.081,6.267,6.267,0,0,0-.082,6.192l4.464,8.17.006.011a1.085,1.085,0,0,0,1.882,0l.006-.011,4.464-8.17a6.267,6.267,0,0,0-.082-6.192ZM86.156,8.156a2.531,2.531,0,1,1,2.531-2.531A2.534,2.534,0,0,1,86.156,8.156Z" transform="translate(0 0)"/></g></svg>