<svg xmlns="http://www.w3.org/2000/svg" width="20.364" height="14" viewBox="0 0 20.364 14"><defs><style>.a{fill:#efac36;}</style></defs><g transform="translate(0 -80)"><g transform="translate(13.499 82.581)"><path class="a" d="M339.392,149.419l6.865,4.34V144.9Z" transform="translate(-339.392 -144.896)"/></g><g transform="translate(0 82.581)"><path class="a" d="M0,144.9v8.863l6.865-4.34Z" transform="translate(0 -144.896)"/></g><g transform="translate(0.038 80)"><g transform="translate(0 0)"><path class="a" d="M20.013,80H2.195A1.257,1.257,0,0,0,.96,81.083L11.1,87.766l10.144-6.683A1.257,1.257,0,0,0,20.013,80Z" transform="translate(-0.96 -80)"/></g></g><g transform="translate(0.041 87.872)"><g transform="translate(0 0)"><path class="a" d="M13.316,277.921l-1.8,1.186a.639.639,0,0,1-.7,0l-1.8-1.187-7.99,5.054a1.255,1.255,0,0,0,1.232,1.074H20.074a1.255,1.255,0,0,0,1.232-1.074Z" transform="translate(-1.024 -277.92)"/></g></g></g></svg>