<svg xmlns="http://www.w3.org/2000/svg" width="29.531" height="24" viewBox="0 0 29.531 24"><defs><style>.a{fill:#1da1f2;}</style></defs><path class="a" d="M9.287,24.5c11.144,0,17.238-9.233,17.238-17.238q0-.393-.017-.783a12.327,12.327,0,0,0,3.022-3.137,12.086,12.086,0,0,1-3.479.954A6.08,6.08,0,0,0,28.716.944a12.155,12.155,0,0,1-3.847,1.471A6.064,6.064,0,0,0,14.544,7.939,17.2,17.2,0,0,1,2.055,1.609,6.064,6.064,0,0,0,3.931,9.7,6.013,6.013,0,0,1,1.187,8.94c0,.025,0,.05,0,.077a6.06,6.06,0,0,0,4.861,5.939,6.051,6.051,0,0,1-2.737.1,6.065,6.065,0,0,0,5.66,4.208,12.155,12.155,0,0,1-7.525,2.593A12.353,12.353,0,0,1,0,21.778,17.151,17.151,0,0,0,9.287,24.5" transform="translate(0 -0.5)"/></svg>