<svg xmlns="http://www.w3.org/2000/svg" width="23.896" height="24" viewBox="0 0 23.896 24"><defs><style>.a{fill:#e5e5e5;}.b,.d{fill:#fff;}.c{fill:#64b161;}.d{fill-rule:evenodd;}</style></defs><g transform="translate(0)"><path class="a" d="M.511,24a.511.511,0,0,1-.493-.645l1.56-5.7A11.9,11.9,0,1,1,12,23.8h-.005a11.924,11.924,0,0,1-5.506-1.352L.64,23.983A.514.514,0,0,1,.511,24Zm0,0" transform="translate(0)"/><path class="b" d="M10.895,33.873l1.616-5.9a11.39,11.39,0,1,1,9.869,5.7h0a11.38,11.38,0,0,1-5.442-1.386Zm6.317-3.645.346.2a9.454,9.454,0,0,0,4.818,1.319h0a9.466,9.466,0,1,0-8.019-4.435l.225.358-.957,3.492Zm0,0" transform="translate(-10.384 -10.384)"/><path class="c" d="M19.344,41.566l1.56-5.7a11,11,0,1,1,9.528,5.506h0a10.993,10.993,0,0,1-5.254-1.338Zm0,0" transform="translate(-18.437 -18.474)"/><g transform="translate(0.511 0.511)"><path class="b" d="M10.895,33.873l1.616-5.9a11.39,11.39,0,1,1,9.869,5.7h0a11.38,11.38,0,0,1-5.442-1.386Zm6.317-3.645.346.2a9.454,9.454,0,0,0,4.818,1.319h0a9.466,9.466,0,1,0-8.019-4.435l.225.358-.957,3.492Zm0,0" transform="translate(-10.895 -10.895)"/><path class="d" d="M135.386,142.112c-.213-.474-.438-.483-.641-.492-.166-.007-.356-.007-.545-.007a1.046,1.046,0,0,0-.759.356,3.19,3.19,0,0,0-1,2.373,5.535,5.535,0,0,0,1.162,2.943,11.681,11.681,0,0,0,4.861,4.3c2.4.948,2.893.76,3.415.712a2.874,2.874,0,0,0,1.921-1.353,2.376,2.376,0,0,0,.166-1.353c-.071-.118-.261-.19-.545-.332s-1.684-.831-1.945-.926-.451-.142-.64.143-.735.925-.9,1.115-.332.214-.617.072a7.781,7.781,0,0,1-2.288-1.412,8.575,8.575,0,0,1-1.583-1.971c-.166-.285,0-.425.125-.581a8.582,8.582,0,0,0,.711-.973.524.524,0,0,0-.024-.5C136.192,144.082,135.639,142.674,135.386,142.112Zm0,0" transform="translate(-126.748 -135.486)"/></g></g></svg>