<svg xmlns="http://www.w3.org/2000/svg" width="17.983" height="18" viewBox="0 0 17.983 18"><defs><style>.a{fill:#efac36;}</style></defs><path class="a" d="M15.325,2.614a9,9,0,0,0-12.678,0A8.83,8.83,0,0,0,0,8.917v0a8.876,8.876,0,0,0,1.1,4.213L.025,18l4.922-1.12a9.01,9.01,0,0,0,4.041.96h0a8.967,8.967,0,0,0,6.344-2.612,8.825,8.825,0,0,0-.009-12.615ZM8.991,16.436h0a7.593,7.593,0,0,1-3.609-.915l-.233-.126-3.273.744.711-3.231-.137-.236A7.509,7.509,0,0,1,1.4,8.92a7.584,7.584,0,0,1,12.929-5.31,7.468,7.468,0,0,1,2.244,5.314A7.561,7.561,0,0,1,8.991,16.436Zm0,0"/><path class="a" d="M140.53,141.863h-.394a.757.757,0,0,0-.548.256,2.3,2.3,0,0,0-.72,1.71,3.981,3.981,0,0,0,.84,2.12,8.431,8.431,0,0,0,3.513,3.094c1.737.683,2.091.547,2.468.513a2.077,2.077,0,0,0,1.388-.974,1.709,1.709,0,0,0,.12-.975c-.051-.085-.189-.137-.394-.239s-1.214-.607-1.4-.675-.326-.1-.463.1-.541.679-.661.816-.24.154-.446.051a5.685,5.685,0,0,1-1.647-1.021,6.3,6.3,0,0,1-1.156-1.442c-.12-.205-.013-.316.09-.418s.217-.217.32-.337a1.386,1.386,0,0,0,.2-.342.376.376,0,0,0-.017-.359c-.051-.1-.446-1.116-.629-1.522h0C140.838,141.881,140.676,141.869,140.53,141.863Zm0,0" transform="translate(-133.985 -136.876)"/></svg>