<?xml version="1.0" encoding="utf-8"?>
<svg version="1.1" id="Layer_1" xmlns="http://www.w3.org/2000/svg" width="100" height="35" viewBox="0 0 122.88 38.48"
     style="enable-background:new 0 0 122.88 38.48" xml:space="preserve"><style type="text/css"><![CDATA[
	.st0{fill:#26A000;}
	.st1{fill:#FFFFFF;}
	.st2{fill-rule:evenodd;clip-rule:evenodd;fill:#2AB200;}
]]></style>
  <g><path class="st2" d="M118.69,0H4.19C1.89,0,0,1.89,0,4.19v30.11c0,2.3,1.89,4.19,4.19,4.19h114.5c2.3,0,4.19-1.89,4.19-4.19V4.19 C122.88,1.89,120.99,0,118.69,0L118.69,0L118.69,0z"/>
    <path class="st1"
          d="M51.99,21.34l3.13-0.23c0.07,0.59,0.21,1.04,0.42,1.34c0.34,0.5,0.82,0.75,1.46,0.75 c0.47,0,0.83-0.13,1.09-0.38c0.26-0.26,0.38-0.55,0.38-0.89c0-0.32-0.12-0.61-0.36-0.86c-0.24-0.25-0.8-0.49-1.68-0.72 c-1.45-0.37-2.47-0.88-3.09-1.5c-0.62-0.62-0.93-1.42-0.93-2.39c0-0.63,0.16-1.23,0.48-1.8c0.32-0.57,0.79-1.01,1.43-1.34 c0.64-0.32,1.51-0.48,2.62-0.48c1.36,0,2.4,0.29,3.12,0.89c0.72,0.59,1.14,1.53,1.28,2.81l-3.1,0.21 c-0.08-0.56-0.26-0.97-0.52-1.23c-0.27-0.26-0.63-0.38-1.1-0.38c-0.38,0-0.67,0.1-0.87,0.28s-0.29,0.42-0.29,0.69 c0,0.2,0.08,0.37,0.24,0.53c0.15,0.16,0.52,0.31,1.1,0.46c1.44,0.36,2.47,0.73,3.09,1.1c0.62,0.37,1.08,0.82,1.36,1.37 c0.28,0.54,0.42,1.16,0.42,1.83c0,0.79-0.19,1.53-0.57,2.2c-0.38,0.67-0.91,1.18-1.59,1.53c-0.68,0.35-1.53,0.52-2.57,0.52 c-1.81,0-3.07-0.41-3.77-1.22C52.48,23.62,52.08,22.59,51.99,21.34L51.99,21.34z M25.29,21.2c-0.24-0.12-1.44-0.71-1.67-0.79 c-0.22-0.08-0.39-0.12-0.55,0.12c-0.16,0.24-0.63,0.79-0.77,0.96c-0.14,0.16-0.28,0.18-0.53,0.06c-0.24-0.12-1.03-0.38-1.96-1.21 c-0.72-0.65-1.22-1.45-1.36-1.69c-0.14-0.24-0.02-0.38,0.11-0.5c0.11-0.11,0.24-0.28,0.37-0.43s0.16-0.24,0.24-0.41 c0.08-0.16,0.04-0.3-0.02-0.43c-0.06-0.12-0.55-1.32-0.75-1.81c-0.2-0.48-0.4-0.41-0.55-0.42c-0.14-0.01-0.3-0.01-0.47-0.01 s-0.43,0.06-0.65,0.3c-0.22,0.24-0.85,0.84-0.85,2.04s0.87,2.36,1,2.53c0.12,0.16,1.72,2.63,4.17,3.68 c0.58,0.25,1.04,0.4,1.39,0.52c0.58,0.18,1.12,0.16,1.54,0.1c0.47-0.07,1.44-0.59,1.65-1.16c0.2-0.57,0.2-1.06,0.14-1.16 C25.7,21.38,25.54,21.32,25.29,21.2L25.29,21.2L25.29,21.2L25.29,21.2L25.29,21.2z M27.75,12.25c-1.84-1.85-4.3-2.86-6.91-2.86 c-5.38,0-9.76,4.38-9.76,9.76c0,1.72,0.45,3.4,1.3,4.88L11,29.09l5.18-1.36c1.43,0.78,3.03,1.19,4.66,1.19h0 c5.38,0,9.76-4.38,9.76-9.76C30.6,16.55,29.59,14.1,27.75,12.25L27.75,12.25L27.75,12.25L27.75,12.25z M20.84,27.28 c-1.46,0-2.89-0.39-4.13-1.13l-0.3-0.18l-3.07,0.8l0.82-2.99l-0.19-0.31c-0.82-1.29-1.24-2.78-1.24-4.32 c0-4.48,3.64-8.12,8.12-8.12c2.17,0,4.21,0.85,5.74,2.38c1.53,1.54,2.37,3.57,2.37,5.74C28.95,23.63,25.31,27.28,20.84,27.28 L20.84,27.28L20.84,27.28L20.84,27.28z M63.13,13.05h3.29v4.33h3.61v-4.33h3.31v12.39h-3.31v-5.02h-3.61v5.02h-3.29V13.05 L63.13,13.05z M82.1,23.39h-3.74l-0.54,2.04h-3.37l4.02-12.39h3.61l4,12.39h-3.45L82.1,23.39L82.1,23.39z M81.41,20.71l-1.17-4.45 l-1.17,4.45H81.41L81.41,20.71z M87.18,25.44V13.05h5.5c1.02,0,1.8,0.1,2.33,0.31c0.54,0.2,0.98,0.58,1.3,1.13 c0.33,0.55,0.5,1.22,0.5,2.01c0,0.69-0.13,1.28-0.38,1.78c-0.25,0.5-0.6,0.91-1.04,1.22c-0.28,0.2-0.67,0.36-1.16,0.49 c0.39,0.15,0.68,0.3,0.86,0.46c0.12,0.1,0.3,0.32,0.53,0.65c0.23,0.33,0.38,0.59,0.46,0.77l1.6,3.58h-3.73l-1.76-3.78 c-0.23-0.49-0.42-0.81-0.6-0.95c-0.24-0.19-0.51-0.29-0.81-0.29h-0.29v5.02H87.18L87.18,25.44z M90.49,18.08h1.39 c0.15,0,0.44-0.06,0.88-0.17c0.22-0.05,0.4-0.18,0.53-0.39c0.14-0.21,0.21-0.45,0.21-0.72c0-0.4-0.11-0.71-0.33-0.92 c-0.22-0.21-0.63-0.32-1.23-0.32h-1.45V18.08L90.49,18.08z M98.74,13.05h8.83v2.65h-5.52v1.97h5.11v2.53h-5.11v2.44h5.68v2.8h-8.99 V13.05L98.74,13.05z"/>
    <polygon class="st0" points="40.66,0 40.66,38.48 38.27,38.48 38.27,0 40.66,0"/></g></svg>
