<svg xmlns="http://www.w3.org/2000/svg" width="24" height="20" viewBox="0 0 24 20"><defs><style>.a{fill:#06256f;}</style></defs><g transform="translate(0 -2)"><path class="a" d="M15,6.5a1,1,0,0,1-1-1V4H10V5.5a1,1,0,1,1-2,0V4a2,2,0,0,1,2-2h4a2,2,0,0,1,2,2V5.5A1,1,0,0,1,15,6.5Z" transform="translate(0)"/><path class="a" d="M12.71,15.38a2.06,2.06,0,0,1-.71.12,2.191,2.191,0,0,1-.77-.14L0,11.62v7.63A2.748,2.748,0,0,0,2.75,22h18.5A2.748,2.748,0,0,0,24,19.25V11.62Z" transform="translate(0 0)"/><path class="a" d="M24,7.75v2.29L12.24,13.96a.74.74,0,0,1-.48,0L0,10.04V7.75A2.748,2.748,0,0,1,2.75,5h18.5A2.748,2.748,0,0,1,24,7.75Z" transform="translate(0 0)"/></g></svg>