<svg xmlns="http://www.w3.org/2000/svg" width="34.278" height="24" viewBox="0 0 34.278 24"><defs><style>.a{fill:red;}.b{fill:#fff;}</style></defs><path class="a" d="M33.572,3.755A4.3,4.3,0,0,0,30.55.734C27.868,0,17.139,0,17.139,0S6.409,0,3.727.706A4.382,4.382,0,0,0,.706,3.755,45.253,45.253,0,0,0,0,12a45.087,45.087,0,0,0,.706,8.245,4.3,4.3,0,0,0,3.021,3.021C6.438,24,17.139,24,17.139,24s10.729,0,13.412-.706a4.3,4.3,0,0,0,3.021-3.021,45.254,45.254,0,0,0,.706-8.245S34.306,6.438,33.572,3.755Zm0,0"/><path class="b" d="M204.969,112.762l8.922-5.139-8.922-5.139Zm0,0" transform="translate(-191.246 -95.623)"/></svg>